<svg xmlns="http://www.w3.org/2000/svg" version="1.1" xmlns:xlink="http://www.w3.org/1999/xlink" xmlns:svgjs="http://svgjs.dev/svgjs" width="1000" height="1125" viewBox="0 0 1000 1125"><g transform="matrix(1,0,0,1,0.0011008540699322111,0)"><svg viewBox="0 0 320 360" data-background-color="#fce44d" preserveAspectRatio="xMidYMid meet" height="1125" width="1000" xmlns="http://www.w3.org/2000/svg" xmlns:xlink="http://www.w3.org/1999/xlink"><g id="tight-bounds" transform="matrix(1,0,0,1,0.00010353528136874957,0)"><svg viewBox="0 0 320 360" height="360" width="320"><g><svg></svg></g><g><svg viewBox="0 0 320 360" height="360" width="320"><g><path xmlns="http://www.w3.org/2000/svg" d="M307.925 179.999l6.575-11.387c11.322-19.607 4.604-44.679-15.003-56.001l-11.387-6.575v-13.151c0-22.639-18.354-40.994-40.994-40.994h-13.151l-6.575-11.387c-11.322-19.607-36.393-26.325-56.001-15.003l-11.39 6.572-11.387-6.576c-19.607-11.318-44.679-4.6-56.001 15.007l-6.575 11.387h-13.151c-22.639 0-40.994 18.354-40.994 40.994v13.151l-11.387 6.575c-19.607 11.322-26.325 36.393-15.003 56.001l6.572 11.387-6.576 11.387c-11.318 19.607-4.6 44.679 15.007 56l11.387 6.576v13.15c0 22.639 18.354 40.994 40.994 40.994h13.151l6.575 11.387c11.322 19.607 36.393 26.325 56.001 15.003l11.387-6.571 11.387 6.575c19.607 11.322 44.679 4.604 56-15.003l6.576-11.387h13.15c22.639 0 40.994-18.354 40.994-40.994v-13.151l11.387-6.575c19.607-11.322 26.325-36.393 15.003-56.001zM297.702 115.716c8.655 4.996 14.842 13.062 17.428 22.713 2.586 9.65 1.261 19.734-3.735 28.384l-5.538 9.596-17.747-30.74v-35.494zM251.155 271.155l-57.791 33.365h-66.731l-57.791-33.365-33.365-57.791v-66.731l33.365-57.791 57.791-33.365h66.731l57.791 33.365 33.365 57.791v66.731zM284.517 220.539v31.351l-27.151 15.676zM247.566 277.366l-15.676 27.151h-31.351zM187.15 308.106l-27.151 15.676-27.151-15.676zM119.459 304.517h-31.352l-15.676-27.151zM62.632 267.566l-27.151-15.676v-31.351zM31.891 207.15l-15.675-27.151 15.675-27.151zM35.481 139.459v-31.352l27.151-15.676zM72.431 82.632l15.676-27.151h31.352zM132.848 51.891l27.151-15.675 27.151 15.675zM200.539 55.481h31.351l15.676 27.151zM257.366 92.431l27.151 15.676v31.352zM288.106 152.848l15.676 27.151-15.676 27.151zM247.112 55.481c9.992 0 19.384 3.889 26.452 10.956 7.063 7.063 10.956 16.46 10.957 26.452v11.079l-30.741-17.747-17.747-30.74zM173.18 28.606c8.655-4.996 18.735-6.322 28.385-3.735 9.65 2.586 17.716 8.777 22.712 17.428l5.538 9.596h-35.494l-30.741-17.747zM95.716 42.295c4.996-8.655 13.062-14.842 22.713-17.428 9.65-2.586 19.734-1.261 28.384 3.736l9.596 5.537-30.74 17.747h-35.494zM35.481 92.885c0-9.992 3.889-19.384 10.956-26.452 7.063-7.063 16.46-10.956 26.452-10.956h11.079l-17.747 30.74-30.74 17.747zM8.606 166.817c-4.996-8.655-6.322-18.735-3.735-28.385 2.586-9.65 8.777-17.716 17.428-22.712l9.596-5.538v35.495l-17.747 30.74zM22.295 244.281c-8.655-4.996-14.842-13.062-17.428-22.712-2.586-9.65-1.261-19.734 3.736-28.385l5.537-9.596 17.747 30.74v35.495zM72.885 304.517c-9.992 0-19.384-3.889-26.452-10.957-7.063-7.063-10.956-16.46-10.956-26.451v-11.08l30.74 17.747 17.747 30.741zM146.817 331.391c-8.655 4.996-18.735 6.322-28.385 3.735-9.65-2.586-17.716-8.777-22.712-17.428l-5.538-9.596h35.495l30.74 17.747zM224.281 317.702c-4.996 8.655-13.062 14.842-22.712 17.428-9.65 2.586-19.734 1.261-28.385-3.735l-9.596-5.538 30.74-17.747h35.495zM284.517 267.112c0 9.992-3.889 19.384-10.957 26.452-7.063 7.063-16.46 10.956-26.451 10.957h-11.08l17.747-30.741 30.741-17.747zM315.13 221.565c-2.586 9.65-8.777 17.716-17.428 22.712l-9.596 5.538v-35.494l17.747-30.741 5.538 9.596c4.996 8.658 6.326 18.739 3.739 28.389z" fill="#000000" fill-rule="nonzero" stroke="none" stroke-width="1" stroke-linecap="butt" stroke-linejoin="miter" stroke-miterlimit="10" stroke-dasharray="" stroke-dashoffset="0" font-family="none" font-weight="none" font-size="none" text-anchor="none" style="mix-blend-mode: normal" data-fill-palette-color="tertiary"></path></g><g transform="matrix(1,0,0,1,64,146.3643858202803)"><svg viewBox="0 0 192 67.27122835943939" height="67.27122835943939" width="192"><g><svg viewBox="0 0 192 67.27122835943939" height="67.27122835943939" width="192"><g><svg viewBox="0 0 192 67.27122835943939" height="67.27122835943939" width="192"><g><svg viewBox="0 0 192 67.27122835943939" height="67.27122835943939" width="192"><g id="textblocktransform"><svg viewBox="0 0 192 67.27122835943939" height="67.27122835943939" width="192" id="textblock"><g><svg viewBox="0 0 192 67.27122835943939" height="67.27122835943939" width="192"><g transform="matrix(1,0,0,1,0,0)"><svg width="192" viewBox="0.9499998092651367 -39.5 122.30000305175781 43.5" height="67.27122835943939" data-palette-color="#374151"><path d="M16.35 0L4.95 0 4.95-35.5 16.35-35.5Q21.95-35.5 25.63-33.13 29.3-30.75 31.15-26.73 33-22.7 33-17.8L33-17.8Q33-12.4 30.98-8.4 28.95-4.4 25.2-2.2 21.45 0 16.35 0L16.35 0ZM32-17.8L32-17.8Q32-22.65 30.18-26.43 28.35-30.2 24.88-32.35 21.4-34.5 16.35-34.5L16.35-34.5 5.95-34.5 5.95-1 16.35-1Q21.5-1 24.98-3.2 28.45-5.4 30.23-9.22 32-13.05 32-17.8ZM59.75-20.7L53.4-35.2 54.5-35.2 60.25-21.9 66.05-35.2 67.15-35.2 60.8-20.7 69.3-1.25 84.2-35.5 85.3-35.5 69.85 0 68.75 0 60.3-19.45 51.85 0 50.75 0 35.3-35.5 36.4-35.5 51.3-1.25 59.75-20.7ZM102.59 0L91.2 0 91.2-35.5 102.59-35.5Q108.2-35.5 111.87-33.13 115.55-30.75 117.4-26.73 119.25-22.7 119.25-17.8L119.25-17.8Q119.25-12.4 117.22-8.4 115.2-4.4 111.45-2.2 107.7 0 102.59 0L102.59 0ZM118.25-17.8L118.25-17.8Q118.25-22.65 116.42-26.43 114.59-30.2 111.12-32.35 107.65-34.5 102.59-34.5L102.59-34.5 92.2-34.5 92.2-1 102.59-1Q107.75-1 111.22-3.2 114.7-5.4 116.47-9.22 118.25-13.05 118.25-17.8Z" opacity="1" transform="matrix(1,0,0,1,0,0)" fill="#374151" class="undefined-text-0" data-fill-palette-color="primary" id="text-0"></path></svg></g></svg></g></svg></g></svg></g><g></g></svg></g></svg></g></svg></g></svg></g><defs></defs></svg><rect width="320" height="360" fill="none" stroke="none" visibility="hidden"></rect></g></svg></g></svg>